<svg width="16" height="10" viewBox="0 0 16 10" fill="none" xmlns="http://www.w3.org/2000/svg">
<path d="M7.37825 9.11491L0.672527 2.40081C0.518944 2.24412 0.432918 2.03346 0.432918 1.81405C0.432918 1.59465 0.518944 1.38399 0.672527 1.2273L1.45542 0.444411C1.61211 0.290827 1.82277 0.204801 2.04217 0.204801C2.26158 0.204801 2.47224 0.290827 2.62892 0.444411L7.96836 5.7654L13.3145 0.442735C13.4712 0.289151 13.6818 0.203125 13.9012 0.203125C14.1206 0.203125 14.3313 0.289151 14.488 0.442735L15.2709 1.22563C15.4245 1.38231 15.5105 1.59297 15.5105 1.81238C15.5105 2.03178 15.4245 2.24244 15.2709 2.39913L8.55175 9.11491C8.39507 9.26849 8.18441 9.35452 7.965 9.35452C7.7456 9.35452 7.53494 9.26849 7.37825 9.11491Z" fill="#161851"/>
</svg>
