<svg width="708" height="18" viewBox="0 0 708 18" fill="none" xmlns="http://www.w3.org/2000/svg">
<rect width="708" height="18" fill="#2C2C2C"/>
<path d="M-3878 -2329C-3878 -2330.1 -3877.1 -2331 -3876 -2331H5878C5879.1 -2331 5880 -2330.1 5880 -2329V1535C5880 1536.1 5879.1 1537 5878 1537H-3876C-3877.1 1537 -3878 1536.1 -3878 1535V-2329Z" fill="#F6F6F6"/>
<path d="M-3876 -2330H5878V-2332H-3876V-2330ZM5879 -2329V1535H5881V-2329H5879ZM5878 1536H-3876V1538H5878V1536ZM-3877 1535V-2329H-3879V1535H-3877ZM-3876 1536C-3876.55 1536 -3877 1535.55 -3877 1535H-3879C-3879 1536.66 -3877.66 1538 -3876 1538V1536ZM5879 1535C5879 1535.55 5878.55 1536 5878 1536V1538C5879.66 1538 5881 1536.66 5881 1535H5879ZM5878 -2330C5878.55 -2330 5879 -2329.55 5879 -2329H5881C5881 -2330.66 5879.66 -2332 5878 -2332V-2330ZM-3876 -2332C-3877.66 -2332 -3879 -2330.66 -3879 -2329H-3877C-3877 -2329.55 -3876.55 -2330 -3876 -2330V-2332Z" fill="black" fill-opacity="0.1"/>
<g filter="url(#filter0_d_27_2033)">
<rect width="1888" height="2180" transform="translate(-93 -1839)" fill="white"/>
<g clip-path="url(#clip0_27_2033)">
<path fill-rule="evenodd" clip-rule="evenodd" d="M72.9316 1C73.1784 1 73.415 1.09802 73.5895 1.2725C73.764 1.44698 73.862 1.68363 73.862 1.93039V16.1392H88.0709C88.3176 16.1392 88.5543 16.2373 88.7287 16.4117C88.9032 16.5862 89.0012 16.8229 89.0012 17.0696C89.0012 17.3164 88.9032 17.553 88.7287 17.7275C88.5543 17.902 88.3176 18 88.0709 18H72.9304C72.6836 18 72.447 17.902 72.2725 17.7275C72.098 17.553 72 17.3164 72 17.0696V1.93039C72 1.68363 72.098 1.44698 72.2725 1.2725C72.447 1.09802 72.6849 1 72.9316 1Z" fill="#91E29E"/>
<path fill-rule="evenodd" clip-rule="evenodd" d="M83.6447 3.62079C83.8081 3.59092 83.9759 3.5942 84.1381 3.63043C84.3003 3.66665 84.4535 3.73509 84.5887 3.83168L88.665 6.74316C88.9329 6.93431 89.1138 7.22402 89.168 7.54856C89.2222 7.87309 89.1452 8.20587 88.9541 8.47368C88.7629 8.74149 88.4732 8.92239 88.1487 8.9766C87.8242 9.0308 87.4914 8.95387 87.2236 8.76272L84.1893 6.59554L80.242 12.5165C80.1401 12.6692 80.0057 12.7973 79.8483 12.8917C79.6909 12.9861 79.5146 13.0445 79.332 13.0625C79.1494 13.0805 78.965 13.0578 78.7923 12.996C78.6195 12.9342 78.4625 12.8348 78.3328 12.7051L75.4226 9.79482C75.3073 9.67965 75.2159 9.5429 75.1535 9.39239C75.091 9.24187 75.0589 9.08054 75.0588 8.9176C75.0588 8.75466 75.0908 8.5933 75.1531 8.44275C75.2154 8.29219 75.3068 8.15537 75.4219 8.04012C75.5371 7.92486 75.6739 7.83342 75.8244 7.77101C75.9749 7.7086 76.1362 7.67645 76.2992 7.6764C76.4621 7.67634 76.6235 7.70837 76.774 7.77068C76.9246 7.83298 77.0614 7.92432 77.1766 8.0395L79.0176 9.88166L82.8359 4.15297C82.9281 4.01457 83.0473 3.89614 83.1862 3.80471C83.3252 3.71329 83.4811 3.65074 83.6447 3.62079Z" fill="#049F7E"/>
<path d="M7 3.0353C7 2.55222 7.1919 2.08894 7.53348 1.74735C7.87507 1.40577 8.33836 1.21387 8.82143 1.21387H18.5357C19.0188 1.21387 19.4821 1.40577 19.8237 1.74735C20.1652 2.08894 20.3571 2.55222 20.3571 3.0353V15.1782C20.3571 15.6612 20.1652 16.1245 19.8237 16.4661C19.4821 16.8077 19.0188 16.9996 18.5357 16.9996H8.82143C8.33836 16.9996 7.87507 16.8077 7.53348 16.4661C7.1919 16.1245 7 15.6612 7 15.1782V3.0353Z" fill="#37D7FF"/>
<path fill-rule="evenodd" clip-rule="evenodd" d="M11.8568 0C11.5348 0 11.2259 0.127933 10.9982 0.355656C10.7705 0.583379 10.6425 0.892237 10.6425 1.21429V1.82143C10.6425 2.14348 10.7705 2.45234 10.9982 2.68006C11.2259 2.90778 11.5348 3.03571 11.8568 3.03571H15.4997C15.8217 3.03571 16.1306 2.90778 16.3583 2.68006C16.586 2.45234 16.714 2.14348 16.714 1.82143V1.21429C16.714 0.892237 16.586 0.583379 16.3583 0.355656C16.1306 0.127933 15.8217 0 15.4997 0L11.8568 0ZM10.6984 6.92507C10.6984 6.76405 10.7623 6.60962 10.8762 6.49576C10.9901 6.3819 11.1445 6.31793 11.3055 6.31793C11.4665 6.31793 11.621 6.3819 11.7348 6.49576C11.8487 6.60962 11.9127 6.76405 11.9127 6.92507C11.9127 7.0861 11.8487 7.24052 11.7348 7.35439C11.621 7.46825 11.4665 7.53221 11.3055 7.53221C11.1445 7.53221 10.9901 7.46825 10.8762 7.35439C10.7623 7.24052 10.6984 7.0861 10.6984 6.92507ZM11.3055 4.4965C10.6614 4.4965 10.0437 4.75237 9.58827 5.20781C9.13282 5.66326 8.87695 6.28097 8.87695 6.92507C8.87695 7.56917 9.13282 8.18689 9.58827 8.64233C10.0437 9.09778 10.6614 9.35364 11.3055 9.35364C11.9496 9.35364 12.5673 9.09778 13.0228 8.64233C13.4782 8.18689 13.7341 7.56917 13.7341 6.92507C13.7341 6.28097 13.4782 5.66326 13.0228 5.20781C12.5673 4.75237 11.9496 4.4965 11.3055 4.4965ZM13.8871 10.0822C14.0579 9.91167 14.2893 9.81587 14.5307 9.81587C14.772 9.81587 15.0035 9.91167 15.1742 10.0822L16.0497 10.9565L16.924 10.0822C17.008 9.99519 17.1085 9.92577 17.2195 9.87799C17.3306 9.8302 17.4501 9.80503 17.571 9.80392C17.692 9.80281 17.8119 9.8258 17.9238 9.87154C18.0358 9.91727 18.1375 9.98485 18.2231 10.0703C18.3086 10.1558 18.3763 10.2574 18.4221 10.3693C18.468 10.4812 18.4911 10.6012 18.4901 10.7221C18.4891 10.843 18.464 10.9625 18.4163 11.0736C18.3687 11.1848 18.2993 11.2853 18.2124 11.3694L17.3381 12.2436L18.2112 13.1179C18.377 13.2898 18.4687 13.5199 18.4665 13.7586C18.4643 13.9974 18.3684 14.2258 18.1995 14.3946C18.0305 14.5634 17.8021 14.659 17.5633 14.661C17.3245 14.663 17.0945 14.571 16.9228 14.4051L16.0497 13.532L15.1767 14.4063C15.092 14.4908 14.9915 14.5578 14.8809 14.6035C14.7704 14.6492 14.6519 14.6726 14.5322 14.6725C14.4126 14.6724 14.2942 14.6487 14.1837 14.6028C14.0732 14.5569 13.9728 14.4897 13.8883 14.4051C13.8038 14.3204 13.7368 14.2199 13.6911 14.1093C13.6454 13.9988 13.622 13.8803 13.6221 13.7606C13.6222 13.641 13.6459 13.5226 13.6918 13.4121C13.7377 13.3016 13.8049 13.2012 13.8895 13.1167L14.7614 12.2449L13.8871 11.3706C13.8023 11.286 13.735 11.1855 13.6891 11.0748C13.6432 10.9642 13.6195 10.8456 13.6195 10.7258C13.6195 10.606 13.6432 10.4874 13.6891 10.3767C13.735 10.2661 13.8023 10.1656 13.8871 10.081V10.0822Z" fill="#0078FF"/>
<path fill-rule="evenodd" clip-rule="evenodd" d="M43.25 1C43.572 1 43.8809 1.12793 44.1086 1.35566C44.3364 1.58338 44.4643 1.89224 44.4643 2.21429V3.42857H50.5357V2.21429C50.5357 1.89224 50.6636 1.58338 50.8914 1.35566C51.1191 1.12793 51.428 1 51.75 1C52.072 1 52.3809 1.12793 52.6086 1.35566C52.8364 1.58338 52.9643 1.89224 52.9643 2.21429V3.42857H54.1786C54.6616 3.42857 55.1249 3.62047 55.4665 3.96206C55.8081 4.30364 56 4.76693 56 5.25V6.46429H39V5.25C39 4.76693 39.1919 4.30364 39.5335 3.96206C39.8751 3.62047 40.3384 3.42857 40.8214 3.42857H42.0357V2.21429C42.0357 1.89224 42.1636 1.58338 42.3914 1.35566C42.6191 1.12793 42.928 1 43.25 1Z" fill="#DF6162"/>
<path d="M39 6.46387H56V16.1782C56 16.6612 55.8081 17.1245 55.4665 17.4661C55.1249 17.8077 54.6616 17.9996 54.1786 17.9996H40.8214C40.3384 17.9996 39.8751 17.8077 39.5335 17.4661C39.1919 17.1245 39 16.6612 39 16.1782V6.46387Z" fill="#FFDCBB"/>
<path d="M47.8087 8.3704C47.7361 8.32725 47.6553 8.29972 47.5715 8.28956C47.4876 8.27941 47.4026 8.28685 47.3218 8.31142C47.241 8.33599 47.1662 8.37715 47.1022 8.43226C47.0382 8.48736 46.9865 8.55522 46.9502 8.63147L46.048 10.4444L46.0467 10.4468L44.0395 10.7419H44.0359C43.9255 10.7593 43.822 10.8069 43.7369 10.8794C43.6518 10.9519 43.5884 11.0465 43.5536 11.1527C43.5188 11.2589 43.514 11.3727 43.5398 11.4815C43.5655 11.5903 43.6208 11.6898 43.6995 11.7692L43.7056 11.7753L45.1567 13.1644C45.1537 13.1748 45.1513 13.1853 45.1494 13.196L44.8142 15.185C44.7912 15.2992 44.8016 15.4177 44.8441 15.5263C44.8866 15.6348 44.9595 15.7288 45.054 15.7971C45.1485 15.8653 45.2606 15.9049 45.377 15.9112C45.4934 15.9174 45.6091 15.89 45.7104 15.8322L47.4784 14.8972C47.4894 14.8935 47.5014 14.8935 47.5124 14.8972L49.2804 15.8322C49.3813 15.8902 49.4967 15.918 49.613 15.9122C49.7292 15.9065 49.8414 15.8674 49.9361 15.7998C50.0308 15.7321 50.104 15.6386 50.1471 15.5304C50.1901 15.4223 50.2012 15.3041 50.179 15.1898L49.896 13.2033C49.8921 13.1769 49.8848 13.1512 49.8742 13.1268L51.2827 11.7874C51.3663 11.7088 51.4259 11.6082 51.4547 11.4971C51.4835 11.3861 51.4803 11.2692 51.4455 11.1599C51.4107 11.0506 51.3458 10.9534 51.2581 10.8794C51.1704 10.8055 51.0636 10.7578 50.95 10.7419L48.9477 10.4383L48.944 10.4371L48.0406 8.61812L48.0382 8.61447C47.9859 8.51365 47.9064 8.4283 47.8087 8.3704Z" fill="#DF6162"/>
<path d="M213.071 9.21424C214.037 9.21424 214.964 8.83045 215.647 8.1473C216.33 7.46415 216.714 6.5376 216.714 5.57148C216.714 4.60535 216.33 3.6788 215.647 2.99565C214.964 2.3125 214.037 1.92871 213.071 1.92871C212.105 1.92871 211.179 2.3125 210.495 2.99565C209.812 3.6788 209.428 4.60535 209.428 5.57148C209.428 6.5376 209.812 7.46415 210.495 8.1473C211.179 8.83045 212.105 9.21424 213.071 9.21424Z" fill="#37D7FF"/>
<path d="M207 16.5C207 14.8898 207.64 13.3455 208.778 12.2069C209.917 11.0684 211.461 10.4287 213.071 10.4287C214.681 10.4287 216.226 11.0684 217.364 12.2069C218.503 13.3455 219.143 14.8898 219.143 16.5C219.143 16.661 219.079 16.8154 218.965 16.9293C218.851 17.0431 218.696 17.1071 218.535 17.1071H207.607C207.446 17.1071 207.292 17.0431 207.178 16.9293C207.064 16.8154 207 16.661 207 16.5Z" fill="#37D7FF"/>
<path fill-rule="evenodd" clip-rule="evenodd" d="M220.573 17.1063H223.393C223.554 17.1063 223.708 17.0423 223.822 16.9285C223.936 16.8146 224 16.6602 224 16.4992C224 15.6771 223.833 14.8637 223.509 14.1081C223.186 13.3525 222.712 12.6706 222.117 12.1036C221.521 11.5366 220.817 11.0963 220.047 10.8095C219.277 10.5228 218.456 10.3954 217.635 10.4352C218.575 11.1417 219.338 12.0575 219.864 13.11C220.389 14.1625 220.662 15.3229 220.661 16.4992C220.661 16.7104 220.63 16.9144 220.573 17.1063ZM216.875 9.05942C217.419 9.22332 217.994 9.25766 218.553 9.1597C219.113 9.06175 219.642 8.83421 220.098 8.49527C220.554 8.15634 220.925 7.71541 221.18 7.20773C221.435 6.70005 221.568 6.1397 221.568 5.57148C221.568 5.00325 221.435 4.4429 221.18 3.93522C220.925 3.42754 220.554 2.98661 220.098 2.64768C219.642 2.30875 219.113 2.08121 218.553 1.98325C217.994 1.88529 217.419 1.91963 216.875 2.08353C217.749 3.03422 218.234 4.27918 218.232 5.57087C218.234 6.86298 217.749 8.10842 216.875 9.05942Z" fill="#0078FF"/>
<g clip-path="url(#clip1_27_2033)">
<path fill-rule="evenodd" clip-rule="evenodd" d="M117.21 2.33439L114.565 7.62639C114.519 7.71843 114.497 7.82079 114.501 7.92371C114.506 8.02664 114.537 8.1267 114.591 8.21434C114.645 8.30199 114.721 8.37429 114.811 8.42437C114.901 8.47445 115.002 8.50062 115.105 8.50039H120.395C120.845 8.50039 121.136 8.02839 120.935 7.62639L118.29 2.33439C118.24 2.23419 118.163 2.14993 118.067 2.09105C117.972 2.03216 117.862 2.00098 117.75 2.00098C117.638 2.00098 117.528 2.03216 117.433 2.09105C117.337 2.14993 117.26 2.23419 117.21 2.33439ZM107 3.00039C107 2.86778 107.053 2.74061 107.146 2.64684C107.24 2.55307 107.367 2.50039 107.5 2.50039H112.5C112.633 2.50039 112.76 2.55307 112.854 2.64684C112.947 2.74061 113 2.86778 113 3.00039V8.00039C113 8.133 112.947 8.26018 112.854 8.35395C112.76 8.44771 112.633 8.50039 112.5 8.50039H107.5C107.367 8.50039 107.24 8.44771 107.146 8.35395C107.053 8.26018 107 8.133 107 8.00039V3.00039ZM110 16.0004C110.394 16.0004 110.784 15.9228 111.148 15.772C111.512 15.6213 111.843 15.4003 112.121 15.1217C112.4 14.8431 112.621 14.5124 112.772 14.1484C112.922 13.7845 113 13.3944 113 13.0004C113 12.6064 112.922 12.2163 112.772 11.8523C112.621 11.4884 112.4 11.1576 112.121 10.8791C111.843 10.6005 111.512 10.3795 111.148 10.2288C110.784 10.078 110.394 10.0004 110 10.0004C109.204 10.0004 108.441 10.3165 107.879 10.8791C107.316 11.4417 107 12.2047 107 13.0004C107 13.796 107.316 14.5591 107.879 15.1217C108.441 15.6843 109.204 16.0004 110 16.0004Z" fill="#E5BBFF"/>
<path fill-rule="evenodd" clip-rule="evenodd" d="M115.5 10C115.301 10 115.11 10.079 114.97 10.2197C114.829 10.3603 114.75 10.5511 114.75 10.75C114.75 10.9489 114.829 11.1397 114.97 11.2803C115.11 11.421 115.301 11.5 115.5 11.5H120C120.199 11.5 120.39 11.421 120.53 11.2803C120.671 11.1397 120.75 10.9489 120.75 10.75C120.75 10.5511 120.671 10.3603 120.53 10.2197C120.39 10.079 120.199 10 120 10H115.5ZM114.75 13C114.75 12.8011 114.829 12.6103 114.97 12.4697C115.11 12.329 115.301 12.25 115.5 12.25H120C120.199 12.25 120.39 12.329 120.53 12.4697C120.671 12.6103 120.75 12.8011 120.75 13C120.75 13.1989 120.671 13.3897 120.53 13.5303C120.39 13.671 120.199 13.75 120 13.75H115.5C115.301 13.75 115.11 13.671 114.97 13.5303C114.829 13.3897 114.75 13.1989 114.75 13ZM114.75 15.25C114.75 15.0511 114.829 14.8603 114.97 14.7197C115.11 14.579 115.301 14.5 115.5 14.5H120C120.199 14.5 120.39 14.579 120.53 14.7197C120.671 14.8603 120.75 15.0511 120.75 15.25C120.75 15.4489 120.671 15.6397 120.53 15.7803C120.39 15.921 120.199 16 120 16H115.5C115.301 16 115.11 15.921 114.97 15.7803C114.829 15.6397 114.75 15.4489 114.75 15.25Z" fill="#8457D9"/>
</g>
<circle cx="146.325" cy="6.32451" r="5.32451" fill="#DF6162"/>
<rect x="146.363" y="6.94531" width="9.3614" height="9.3614" rx="1" fill="#FFDCBB"/>
<path fill-rule="evenodd" clip-rule="evenodd" d="M176.208 1C175.191 1 174.366 1.7796 174.366 2.74175V15.3485H173.912C173.67 15.3485 173.438 15.4392 173.267 15.6007C173.096 15.7622 173 15.9812 173 16.2096C173 16.438 173.096 16.657 173.267 16.8185C173.438 16.98 173.67 17.0707 173.912 17.0707H180.498C180.47 16.9462 180.456 16.8192 180.456 16.6918C180.456 14.8422 181.475 13.2164 183.009 12.2887C182.642 11.8859 182.371 11.4133 182.214 10.903C182.057 10.3926 182.018 9.85631 182.1 9.33055C182.182 8.8048 182.383 8.30185 182.689 7.8558C182.995 7.40975 183.399 7.03105 183.873 6.74537L183.874 2.7406C183.874 1.7796 183.05 1 182.033 1H176.208Z" fill="#91E29E"/>
<path fill-rule="evenodd" clip-rule="evenodd" d="M174.366 7.45165H179.651C179.853 7.45165 180.046 7.37604 180.188 7.24147C180.331 7.10689 180.411 6.92437 180.411 6.73405C180.411 6.54373 180.331 6.36121 180.188 6.22663C180.046 6.09206 179.853 6.01645 179.651 6.01645H174.366V7.45165ZM174.366 4.46644H177.68C177.882 4.46644 178.075 4.39084 178.218 4.25626C178.36 4.12169 178.44 3.93917 178.44 3.74885C178.44 3.55853 178.36 3.376 178.218 3.24143C178.075 3.10685 177.882 3.03125 177.68 3.03125H174.366V4.46644Z" fill="#049F7E"/>
<path fill-rule="evenodd" clip-rule="evenodd" d="M185.988 12.1453C186.627 12.1453 187.239 11.9058 187.69 11.4795C188.142 11.0531 188.395 10.4749 188.395 9.87198C188.395 9.26905 188.142 8.69082 187.69 8.26448C187.239 7.83815 186.627 7.59863 185.988 7.59863C185.35 7.59863 184.738 7.83815 184.286 8.26448C183.835 8.69082 183.581 9.26905 183.581 9.87198C183.581 10.4749 183.835 11.0531 184.286 11.4795C184.738 11.9058 185.35 12.1453 185.988 12.1453ZM181.976 16.692C181.976 15.6871 182.399 14.7234 183.151 14.0129C183.904 13.3023 184.924 12.9031 185.988 12.9031C187.052 12.9031 188.073 13.3023 188.825 14.0129C189.577 14.7234 190 15.6871 190 16.692C190 16.7925 189.958 16.8889 189.883 16.9599C189.807 17.031 189.705 17.0709 189.599 17.0709H182.378C182.271 17.0709 182.169 17.031 182.094 16.9599C182.019 16.8889 181.976 16.7925 181.976 16.692Z" fill="#049F7E"/>
<path fill-rule="evenodd" clip-rule="evenodd" d="M251.165 1.40812C250.944 1.61608 250.663 1.7592 250.352 1.81425C247.818 2.25462 247.818 5.89259 250.352 6.33418C250.986 6.44427 251.49 6.92624 251.627 7.55499L251.652 7.66142C252.178 10.0725 255.611 10.0884 256.159 7.68099L256.189 7.55622C256.253 7.2712 256.393 7.01676 256.586 6.81247C257.082 8.50655 257 10.3175 256.354 11.96C255.707 13.6026 254.533 14.9833 253.015 15.8846C251.497 16.786 249.723 17.1568 247.971 16.9385C246.219 16.7203 244.59 15.9254 243.34 14.6792C242.09 13.433 241.29 11.8063 241.066 10.0553C240.842 8.30433 241.207 6.52867 242.104 5.0081C243 3.48752 244.377 2.30846 246.018 1.65668C247.658 1.0049 249.469 0.917458 251.165 1.40812Z" fill="#91E29E"/>
<path fill-rule="evenodd" clip-rule="evenodd" d="M251.165 1.4086C250.539 1.22826 249.894 1.12555 249.243 1.10279C249.429 1.39147 249.605 1.6875 249.772 1.9872C249.948 1.91014 250.141 1.85142 250.353 1.81472C250.665 1.75968 250.945 1.61533 251.165 1.4086ZM251.665 7.72428C252.184 9.85519 255.013 10.0485 255.941 8.28453H256.869C256.917 8.79307 256.917 9.30506 256.869 9.8136H253.267C253.05 12.2178 252.348 14.5531 251.204 16.6785C250.579 16.862 249.922 16.9721 249.243 16.9966C250.627 14.8319 251.479 12.3706 251.73 9.8136H246.174C246.425 12.3707 247.278 14.832 248.662 16.9966C247.998 16.9731 247.339 16.8663 246.701 16.6785C245.557 14.5531 244.855 12.2178 244.639 9.8136H241.036C240.988 9.30506 240.988 8.79307 241.036 8.28453H244.639C244.855 5.88036 245.557 3.54502 246.701 1.41961C247.339 1.23191 247.998 1.12506 248.662 1.10156C247.278 3.2661 246.425 5.72746 246.174 8.28453H251.73C251.712 8.09742 251.69 7.91064 251.665 7.72428Z" fill="#049F7E"/>
<path fill-rule="evenodd" clip-rule="evenodd" d="M254.864 0.762711C254.632 -0.258709 253.173 -0.252593 252.95 0.771274L252.941 0.811641L252.924 0.88993C252.798 1.45266 252.509 1.96546 252.091 2.36334C251.674 2.76121 251.148 3.02624 250.58 3.12482C249.516 3.30953 249.516 4.8386 250.58 5.02454C251.15 5.12345 251.678 5.38991 252.096 5.78992C252.513 6.18993 252.803 6.70535 252.926 7.27044L252.951 7.37809C253.173 8.40073 254.63 8.40685 254.864 7.38665L254.892 7.26188C255.021 6.69856 255.313 6.18575 255.732 5.7879C256.151 5.39004 256.678 5.12489 257.247 5.02576C258.314 4.83983 258.314 3.30831 257.247 3.12237C256.681 3.02399 256.156 2.76144 255.738 2.36736C255.32 1.97328 255.027 1.46505 254.896 0.905832L254.874 0.810418L254.864 0.761488V0.762711Z" fill="#049F7E"/>
<path fill-rule="evenodd" clip-rule="evenodd" d="M282.393 12.9181C282.433 12.8039 282.508 12.7051 282.607 12.6352C282.706 12.5652 282.825 12.5276 282.946 12.5273H285.052C285.174 12.5276 285.292 12.5652 285.391 12.6352C285.49 12.7051 285.565 12.8039 285.606 12.9181L286.414 15.1754H287.53C287.764 15.1754 287.988 15.2684 288.154 15.4339C288.319 15.5994 288.412 15.824 288.412 16.0581C288.412 16.2922 288.319 16.5167 288.154 16.6822C287.988 16.8477 287.764 16.9407 287.53 16.9407H280.468C280.234 16.9407 280.01 16.8477 279.844 16.6822C279.679 16.5167 279.586 16.2922 279.586 16.0581C279.586 15.824 279.679 15.5994 279.844 15.4339C280.01 15.2684 280.234 15.1754 280.468 15.1754H281.584L282.391 12.9181H282.393Z" fill="#0078FF"/>
<path fill-rule="evenodd" clip-rule="evenodd" d="M277.476 1.05859C276.528 1.05859 275.761 1.82594 275.761 2.77335V11.7014C275.761 12.6488 276.528 13.4161 277.476 13.4161H290.523C291.47 13.4161 292.238 12.6488 292.238 11.7014V2.77335C292.238 1.82594 291.47 1.05859 290.523 1.05859H277.476Z" fill="#85E7FF"/>
<path d="M280.938 7.88477L280.943 9.78711C280.943 9.86888 280.969 9.94844 281.018 10.0138L281.019 10.0146L281.02 10.0154L281.021 10.0176L281.025 10.0222L281.037 10.0373L281.075 10.0826C281.107 10.1189 281.154 10.1688 281.215 10.227C281.337 10.3434 281.517 10.4945 281.761 10.6449C282.251 10.9465 282.989 11.2375 283.998 11.2375C285.009 11.2375 285.747 10.9457 286.239 10.6449C286.483 10.4953 286.663 10.3441 286.786 10.2277C286.849 10.1676 286.909 10.104 286.965 10.0373L286.976 10.0229L286.98 10.0184L286.981 10.0161C286.981 10.0161 286.983 10.0146 286.682 9.78635L286.983 10.0146C287.033 9.94887 287.059 9.86872 287.059 9.78635V7.88477L284.524 8.98294C284.358 9.05481 284.18 9.09188 283.999 9.09188C283.818 9.09188 283.639 9.05481 283.473 8.98294L280.938 7.88477Z" fill="#0078FF"/>
<path fill-rule="evenodd" clip-rule="evenodd" d="M279.286 5.5498C279.606 5.5498 279.865 5.6798 279.865 5.83997V9.03872C279.865 9.19936 279.606 9.32935 279.286 9.32935C278.967 9.32935 278.708 9.19936 278.708 9.03872V5.83997C278.708 5.6798 278.967 5.5498 279.286 5.5498Z" fill="#0078FF"/>
<path fill-rule="evenodd" clip-rule="evenodd" d="M284.147 3.20798C284.1 3.18738 284.049 3.17676 283.997 3.17676C283.945 3.17676 283.894 3.18738 283.847 3.20798L278.934 5.33631C278.866 5.36556 278.809 5.414 278.768 5.47564C278.728 5.53729 278.706 5.60945 278.706 5.68322C278.706 5.75699 278.728 5.82914 278.768 5.89079C278.809 5.95244 278.866 6.00087 278.934 6.03013L283.847 8.15846C283.894 8.17905 283.945 8.18968 283.997 8.18968C284.049 8.18968 284.1 8.17905 284.147 8.15846L289.06 6.03013C289.128 6.00087 289.186 5.95244 289.226 5.89079C289.267 5.82914 289.288 5.75699 289.288 5.68322C289.288 5.60945 289.267 5.53729 289.226 5.47564C289.186 5.414 289.128 5.36556 289.06 5.33631L284.147 3.20798Z" fill="#0078FF"/>
<path d="M309 9.5C309 11.7543 309.896 13.9163 311.49 15.5104C313.084 17.1045 315.246 18 317.5 18C319.754 18 321.916 17.1045 323.51 15.5104C325.104 13.9163 326 11.7543 326 9.5C326 7.24566 325.104 5.08365 323.51 3.48959C321.916 1.89553 319.754 1 317.5 1C315.246 1 313.084 1.89553 311.49 3.48959C309.896 5.08365 309 7.24566 309 9.5Z" fill="#FFDCBB"/>
<path d="M317.5 7.91016V14.1316" stroke="#DF6162" stroke-width="2" stroke-linecap="round"/>
<circle cx="317.5" cy="4.76025" r="1.07666" fill="#DF6162"/>
<path fill-rule="evenodd" clip-rule="evenodd" d="M416.403 2C416.034 2 415.68 2.14662 415.419 2.4076C415.158 2.66858 415.011 3.02254 415.011 3.39163V11.2775C415.011 11.6466 415.158 12.0006 415.419 12.2615C415.68 12.5225 416.034 12.6691 416.403 12.6691H426.608C426.977 12.6691 427.331 12.5225 427.592 12.2615C427.853 12.0006 428 11.6466 428 11.2775V3.39163C428 3.02254 427.853 2.66858 427.592 2.4076C427.331 2.14662 426.977 2 426.608 2H416.403Z" fill="#FFD0A5"/>
<path fill-rule="evenodd" clip-rule="evenodd" d="M428 3.70898L421.861 7.80222C421.754 7.86671 421.631 7.89982 421.506 7.89778C421.381 7.89982 421.258 7.86671 421.15 7.80222L415.011 3.70898V5.10247L420.51 8.76894L420.515 8.77265C420.807 8.96284 421.158 9.05747 421.506 9.05747C421.854 9.05747 422.204 8.96284 422.497 8.77265L428 5.10247V3.70898Z" fill="#DF6162"/>
<path fill-rule="evenodd" clip-rule="evenodd" d="M412.337 7.97363C412.124 7.97363 411.92 8.05815 411.77 8.2086C411.619 8.35905 411.535 8.5631 411.535 8.77586V13.5459L411.014 15.1092C410.999 15.1546 410.996 15.2033 411.006 15.2501C411.016 15.2968 411.039 15.3401 411.071 15.3752C411.104 15.4103 411.145 15.4361 411.191 15.4498C411.237 15.4635 411.285 15.4646 411.332 15.4531L413.439 14.9263H417.685C417.898 14.9263 418.102 14.8418 418.252 14.6913C418.403 14.5409 418.487 14.3368 418.487 14.1241V8.77586C418.487 8.5631 418.403 8.35905 418.252 8.2086C418.102 8.05815 417.898 7.97363 417.685 7.97363H412.337Z" fill="#DF6162"/>
<path fill-rule="evenodd" clip-rule="evenodd" d="M413.407 10.2305C413.319 10.2305 413.234 10.2657 413.171 10.3284C413.108 10.3911 413.073 10.4761 413.073 10.5647C413.073 10.6534 413.108 10.7384 413.171 10.8011C413.234 10.8638 413.319 10.899 413.407 10.899H416.616C416.705 10.899 416.79 10.8638 416.853 10.8011C416.915 10.7384 416.951 10.6534 416.951 10.5647C416.951 10.4761 416.915 10.3911 416.853 10.3284C416.79 10.2657 416.705 10.2305 416.616 10.2305H413.407ZM413.407 12.0007C413.319 12.0007 413.234 12.0359 413.171 12.0986C413.108 12.1613 413.073 12.2463 413.073 12.335C413.073 12.4236 413.108 12.5087 413.171 12.5713C413.234 12.634 413.319 12.6693 413.407 12.6693H415.547C415.635 12.6693 415.72 12.634 415.783 12.5713C415.846 12.5087 415.881 12.4236 415.881 12.335C415.881 12.2463 415.846 12.1613 415.783 12.0986C415.72 12.0359 415.635 12.0007 415.547 12.0007H413.407Z" fill="#FFD0A5"/>
<path d="M378.511 15.4843L379.098 16.1435C379.487 16.589 380.016 16.8947 380.6 17.0087L385.378 17.9515C385.95 18.064 386.543 17.9799 387.059 17.7132C387.346 17.5499 387.598 17.3322 387.8 17.0727C388.002 16.8131 388.151 16.5167 388.236 16.2005L390.812 6.72042C390.853 6.56795 390.864 6.40893 390.843 6.25244C390.822 6.09596 390.77 5.94507 390.69 5.80839C390.61 5.67172 390.503 5.55193 390.376 5.45587C390.249 5.35981 390.105 5.28936 389.95 5.24854C389.795 5.20773 389.634 5.19734 389.476 5.21798C389.317 5.23861 389.164 5.28987 389.026 5.36882C388.887 5.44777 388.766 5.55287 388.668 5.67812C388.571 5.80336 388.499 5.9463 388.458 6.09877L387.561 9.39479C387.544 9.47115 387.512 9.54333 387.466 9.60696C387.42 9.67059 387.361 9.72437 387.294 9.76504C387.226 9.80571 387.151 9.83243 387.072 9.8436C386.994 9.85476 386.914 9.85014 386.837 9.83C386.761 9.80987 386.689 9.77464 386.627 9.72645C386.564 9.67825 386.512 9.61809 386.474 9.54958C386.436 9.48108 386.412 9.40565 386.404 9.32785C386.397 9.25005 386.405 9.1715 386.429 9.09692L388.1 2.94781C388.146 2.79903 388.162 2.64254 388.145 2.4877C388.129 2.33286 388.081 2.18284 388.005 2.04662C387.929 1.9104 387.825 1.79077 387.701 1.69489C387.577 1.59901 387.434 1.52884 387.282 1.48859C387.129 1.44834 386.97 1.43883 386.814 1.46062C386.658 1.48242 386.507 1.53507 386.372 1.61543C386.237 1.6958 386.12 1.80223 386.027 1.92835C385.935 2.05447 385.869 2.1977 385.834 2.34947L384.164 8.49729C384.146 8.57258 384.112 8.6435 384.066 8.70586C384.02 8.76823 383.961 8.82076 383.893 8.86035C383.826 8.89995 383.751 8.9258 383.673 8.93638C383.596 8.94697 383.517 8.94207 383.441 8.92197C383.365 8.90188 383.294 8.867 383.232 8.81939C383.17 8.77178 383.119 8.71242 383.081 8.64481C383.042 8.57721 383.018 8.50273 383.01 8.42578C383.001 8.34883 383.009 8.27098 383.031 8.19683L384.245 3.72616C384.288 3.57835 384.301 3.4236 384.283 3.27093C384.264 3.11826 384.215 2.97072 384.138 2.83694C384.062 2.70316 383.959 2.58581 383.835 2.49174C383.712 2.39766 383.571 2.32875 383.42 2.28901C383.27 2.24928 383.113 2.23953 382.958 2.26032C382.804 2.28112 382.655 2.33204 382.521 2.41012C382.387 2.48821 382.27 2.59188 382.176 2.71511C382.083 2.83833 382.016 2.97863 381.978 3.12782L379.795 11.1678L378.981 9.33392C378.813 8.97377 378.511 8.69138 378.137 8.54545C377.763 8.39953 377.347 8.40129 376.975 8.55038C376.602 8.69947 376.303 8.98441 376.138 9.34597C375.973 9.70753 375.955 10.1179 376.089 10.4917L377.107 13.1726C377.429 14.021 377.905 14.8047 378.511 15.4856V15.4843Z" fill="#91E29E"/>
<path fill-rule="evenodd" clip-rule="evenodd" d="M380.671 0.077786C380.909 -0.0223689 381.177 -0.0259399 381.418 0.0678462C381.659 0.161632 381.853 0.345227 381.957 0.578874C382.062 0.812522 382.069 1.07742 381.977 1.3162C381.885 1.55498 381.702 1.74843 381.466 1.85466C380.982 2.06525 380.57 2.40815 380.277 2.84281C380.131 3.05405 379.906 3.19988 379.652 3.24866C379.397 3.29744 379.133 3.24523 378.918 3.10336C378.702 2.96149 378.552 2.74141 378.499 2.49089C378.447 2.24038 378.497 1.97965 378.639 1.76529C379.139 1.02318 379.844 0.437678 380.671 0.077786ZM391.718 2.35715C391.928 2.20518 392.192 2.14204 392.45 2.18163C392.708 2.22122 392.939 2.36029 393.093 2.56825C393.627 3.28752 393.941 4.14217 393.998 5.03152C394.006 5.15883 393.989 5.2865 393.948 5.40727C393.906 5.52804 393.84 5.63953 393.755 5.73538C393.67 5.83122 393.566 5.90955 393.45 5.96589C393.334 6.02222 393.208 6.05547 393.079 6.06371C392.95 6.07196 392.821 6.05506 392.698 6.01396C392.576 5.97287 392.463 5.90839 392.366 5.82421C392.268 5.74002 392.189 5.63779 392.132 5.52333C392.075 5.40888 392.041 5.28445 392.033 5.15715C392 4.63626 391.816 4.13562 391.504 3.71441C391.35 3.50643 391.286 3.2466 391.326 2.99207C391.366 2.73754 391.507 2.50915 391.718 2.35715ZM379.795 11.1664L379.774 11.2441C380.23 11.3645 381.293 11.858 381.805 12.7335C381.857 12.8285 381.928 12.9123 382.014 12.9799C382.099 13.0474 382.198 13.0974 382.303 13.1267C382.409 13.1561 382.519 13.1644 382.628 13.1509C382.737 13.1375 382.842 13.1028 382.937 13.0487C383.032 12.9946 383.115 12.9223 383.181 12.836C383.247 12.7498 383.295 12.6513 383.322 12.5465C383.349 12.4416 383.354 12.3325 383.337 12.2256C383.321 12.1187 383.283 12.0162 383.225 11.924C382.411 10.5318 380.877 9.85964 380.199 9.68092L379.795 11.1664Z" fill="#049F7E"/>
<path fill-rule="evenodd" clip-rule="evenodd" d="M349.244 13.602C349.289 13.4772 349.371 13.3692 349.479 13.2927C349.587 13.2162 349.716 13.1751 349.849 13.1748H352.15C352.283 13.1751 352.412 13.2162 352.52 13.2927C352.628 13.3692 352.71 13.4772 352.754 13.602L353.638 16.0703H354.857C355.112 16.0703 355.358 16.172 355.538 16.353C355.719 16.534 355.821 16.7795 355.821 17.0354C355.821 17.2914 355.719 17.5369 355.538 17.7179C355.358 17.8989 355.112 18.0006 354.857 18.0006H347.142C346.887 18.0006 346.641 17.8989 346.461 17.7179C346.28 17.5369 346.178 17.2914 346.178 17.0354C346.178 16.7795 346.28 16.534 346.461 16.353C346.641 16.172 346.887 16.0703 347.142 16.0703H348.361L349.243 13.602H349.244Z" fill="#0078FF"/>
<path fill-rule="evenodd" clip-rule="evenodd" d="M343.873 0.633789C342.838 0.633789 342 1.47283 342 2.50876V12.271C342 13.3069 342.838 14.146 343.873 14.146H358.127C359.162 14.146 360 13.3069 360 12.271V2.50876C360 1.47283 359.162 0.633789 358.127 0.633789H343.873Z" fill="#37D7FF"/>
<mask id="path-39-outside-1_27_2033" maskUnits="userSpaceOnUse" x="348.352" y="-2" width="13" height="13" fill="black">
<rect fill="white" x="348.352" y="-2" width="13" height="13"/>
<path d="M359.884 6.51773V8.57615C358.669 8.90085 357.486 9.0632 356.328 9.0632C354.413 9.0632 353.003 8.65732 351.923 7.84555C351.429 7.50646 351.024 7.02646 350.749 6.4542C350.473 5.88193 350.337 5.23773 350.353 4.58688C350.353 3.21267 350.816 2.0704 351.866 1.22384C352.916 0.383085 354.274 0.000393531 356.081 0.000393531C357.285 -0.0102548 358.484 0.195256 359.631 0.609217V2.70822C358.553 2.189 357.392 1.92645 356.22 1.93704C355.211 1.93704 354.13 2.22116 353.508 2.66763C353.223 2.86072 352.988 3.13383 352.826 3.46016C352.664 3.78648 352.579 4.15478 352.581 4.5289C352.581 5.28848 352.972 5.9379 353.611 6.39017C354.28 6.87723 355.556 7.09756 356.678 7.09756C357.609 7.09756 358.674 6.90622 359.884 6.51773Z"/>
</mask>
<path d="M359.884 6.51773V8.57615C358.669 8.90085 357.486 9.0632 356.328 9.0632C354.413 9.0632 353.003 8.65732 351.923 7.84555C351.429 7.50646 351.024 7.02646 350.749 6.4542C350.473 5.88193 350.337 5.23773 350.353 4.58688C350.353 3.21267 350.816 2.0704 351.866 1.22384C352.916 0.383085 354.274 0.000393531 356.081 0.000393531C357.285 -0.0102548 358.484 0.195256 359.631 0.609217V2.70822C358.553 2.189 357.392 1.92645 356.22 1.93704C355.211 1.93704 354.13 2.22116 353.508 2.66763C353.223 2.86072 352.988 3.13383 352.826 3.46016C352.664 3.78648 352.579 4.15478 352.581 4.5289C352.581 5.28848 352.972 5.9379 353.611 6.39017C354.28 6.87723 355.556 7.09756 356.678 7.09756C357.609 7.09756 358.674 6.90622 359.884 6.51773Z" fill="#0078FF"/>
<path d="M359.884 6.51773V8.57615C358.669 8.90085 357.486 9.0632 356.328 9.0632C354.413 9.0632 353.003 8.65732 351.923 7.84555C351.429 7.50646 351.024 7.02646 350.749 6.4542C350.473 5.88193 350.337 5.23773 350.353 4.58688C350.353 3.21267 350.816 2.0704 351.866 1.22384C352.916 0.383085 354.274 0.000393531 356.081 0.000393531C357.285 -0.0102548 358.484 0.195256 359.631 0.609217V2.70822C358.553 2.189 357.392 1.92645 356.22 1.93704C355.211 1.93704 354.13 2.22116 353.508 2.66763C353.223 2.86072 352.988 3.13383 352.826 3.46016C352.664 3.78648 352.579 4.15478 352.581 4.5289C352.581 5.28848 352.972 5.9379 353.611 6.39017C354.28 6.87723 355.556 7.09756 356.678 7.09756C357.609 7.09756 358.674 6.90622 359.884 6.51773Z" stroke="#FCFCFC" stroke-width="2.4" stroke-linecap="round" mask="url(#path-39-outside-1_27_2033)"/>
<g clip-path="url(#clip2_27_2033)">
<path fill-rule="evenodd" clip-rule="evenodd" d="M448.857 4.25H447.642C446.782 4.24872 445.949 4.55195 445.291 5.10598C444.633 5.66001 444.192 6.42909 444.047 7.277C443.901 8.12492 444.06 8.99694 444.496 9.73863C444.932 10.4803 445.617 11.0438 446.428 11.3293V12.75C446.428 13.7162 446.812 14.6427 447.495 15.3259C448.178 16.0091 449.105 16.3929 450.071 16.3929H450.678C451 16.3929 451.309 16.2649 451.537 16.0372C451.764 15.8095 451.892 15.5006 451.892 15.1786C451.892 14.8565 451.764 14.5477 451.537 14.3199C451.309 14.0922 451 13.9643 450.678 13.9643H450.071C449.749 13.9643 449.44 13.8364 449.212 13.6086C448.985 13.3809 448.857 13.0721 448.857 12.75V4.25Z" fill="#DF6162"/>
<path d="M458.161 0.965242L448.852 4.24989V11.5356L458.259 14.3795C459.606 14.7729 460.999 13.8937 460.999 12.6515V2.66281C460.999 1.38174 459.528 0.501385 458.161 0.965242Z" fill="#FFDCBB"/>
</g>
<path d="M485.007 6.83013L486.74 5.26269C487.138 4.9028 487.61 4.63389 488.123 4.47463C488.636 4.31537 489.177 4.26956 489.71 4.34037L492.003 4.64421L495.185 2.92485C495.232 2.89943 495.284 2.88665 495.338 2.88776C495.391 2.88887 495.444 2.90384 495.49 2.9312C495.535 2.95855 495.574 2.99736 495.6 3.04383C495.626 3.0903 495.64 3.14283 495.64 3.19629V9.04413C495.64 9.24043 495.593 9.43389 495.504 9.60845C495.414 9.78301 495.284 9.93363 495.124 10.0478L492.981 11.58L488.34 7.68549L486.803 8.92965C486.523 9.15109 486.167 9.25538 485.812 9.22064C485.456 9.1859 485.128 9.01483 484.896 8.74331C484.663 8.47179 484.545 8.12091 484.566 7.76423C484.587 7.40755 484.745 7.07279 485.007 6.83013H485.007Z" fill="#049F7E"/>
<path fill-rule="evenodd" clip-rule="evenodd" d="M485.007 6.83049L486.671 5.32713C486.248 4.96823 485.752 4.70655 485.217 4.56061C484.683 4.41466 484.122 4.38802 483.576 4.48257L481.31 4.87497L478.825 3.53793C478.777 3.51191 478.723 3.49887 478.668 3.50008C478.613 3.50129 478.56 3.51672 478.513 3.54484C478.466 3.57296 478.428 3.61281 478.401 3.66046C478.374 3.70811 478.36 3.76191 478.36 3.81657V9.04521C478.36 9.46209 478.566 9.85233 478.911 10.087L485.644 14.6771C486.069 14.9672 486.574 15.1202 487.089 15.1153C487.604 15.1104 488.105 14.9479 488.525 14.6497L493.171 11.4694L493.158 11.4572L492.981 11.5818L490.661 9.63633C491.113 9.47359 491.522 9.20731 491.853 8.85873C491.995 8.71141 492.073 8.51361 492.07 8.30884C492.066 8.10407 491.981 7.90911 491.834 7.76685C491.687 7.62459 491.489 7.54668 491.284 7.55025C491.079 7.55383 490.884 7.63861 490.742 7.78593C490.514 8.02425 490.248 8.17689 489.937 8.23881C489.667 8.29065 489.322 8.28201 488.89 8.14881L488.339 7.68585L486.803 8.93001C486.523 9.15145 486.167 9.25573 485.812 9.22099C485.456 9.18625 485.128 9.01519 484.896 8.74367C484.663 8.47215 484.545 8.12126 484.566 7.76459C484.587 7.40791 484.745 7.07315 485.007 6.83049H485.007Z" fill="#91E29E"/>
<path fill-rule="evenodd" clip-rule="evenodd" d="M518.429 1.9359C518.343 1.9359 518.262 1.96989 518.201 2.0304C518.141 2.09091 518.107 2.17298 518.107 2.25855V3.8718H523.893V2.25855C523.893 2.17298 523.859 2.09091 523.799 2.0304C523.738 1.96989 523.657 1.9359 523.571 1.9359H518.429ZM516.838 0.662078C517.26 0.238449 517.832 0.000299034 518.429 0H523.571C524.168 0 524.74 0.237954 525.162 0.661514C525.584 1.08507 525.821 1.65955 525.821 2.25855V4.83975C525.821 5.09647 525.72 5.34267 525.539 5.52419C525.358 5.70572 525.113 5.8077 524.857 5.8077H517.143C516.887 5.8077 516.642 5.70572 516.461 5.52419C516.28 5.34267 516.179 5.09647 516.179 4.83975V2.25855C516.179 1.65971 516.415 1.08539 516.838 0.662078Z" fill="#0078FF"/>
<path d="M513.929 3.80371C513.417 3.80371 512.927 4.00767 512.565 4.37072C512.203 4.73377 512 5.22618 512 5.73961V16.0644C512 16.5778 512.203 17.0702 512.565 17.4333C512.927 17.7964 513.417 18.0003 513.929 18.0003H528.071C528.583 18.0003 529.073 17.7964 529.435 17.4333C529.797 17.0702 530 16.5778 530 16.0644V5.73961C530 5.22618 529.797 4.73377 529.435 4.37072C529.073 4.00767 528.583 3.80371 528.071 3.80371H513.929Z" fill="#37D7FF"/>
<path fill-rule="evenodd" clip-rule="evenodd" d="M516.5 7.61426C516.287 7.61426 516.082 7.69924 515.932 7.85051C515.781 8.00178 515.696 8.20695 515.696 8.42088C515.696 8.63481 515.781 8.83998 515.932 8.99125C516.082 9.14252 516.287 9.22751 516.5 9.22751H525.5C525.713 9.22751 525.918 9.14252 526.068 8.99125C526.219 8.83998 526.304 8.63481 526.304 8.42088C526.304 8.20695 526.219 8.00178 526.068 7.85051C525.918 7.69924 525.713 7.61426 525.5 7.61426H516.5ZM516.5 12.5753C516.394 12.5753 516.29 12.5962 516.192 12.6367C516.095 12.6773 516.006 12.7367 515.932 12.8116C515.857 12.8865 515.798 12.9754 515.758 13.0733C515.717 13.1711 515.696 13.276 515.696 13.3819C515.696 13.4879 515.717 13.5928 515.758 13.6906C515.798 13.7885 515.857 13.8774 515.932 13.9523C516.006 14.0272 516.095 14.0866 516.192 14.1272C516.29 14.1677 516.394 14.1886 516.5 14.1886H525.5C525.606 14.1886 525.71 14.1677 525.808 14.1272C525.905 14.0866 525.994 14.0272 526.068 13.9523C526.143 13.8774 526.202 13.7885 526.242 13.6906C526.283 13.5928 526.304 13.4879 526.304 13.3819C526.304 13.276 526.283 13.1711 526.242 13.0733C526.202 12.9754 526.143 12.8865 526.068 12.8116C525.994 12.7367 525.905 12.6773 525.808 12.6367C525.71 12.5962 525.606 12.5753 525.5 12.5753H516.5Z" fill="#0078FF"/>
<path fill-rule="evenodd" clip-rule="evenodd" d="M558.274 1.26807C558.407 1.14003 558.575 1.05283 558.759 1.01754C558.942 0.982252 559.133 1.00046 559.306 1.06986L561.984 2.14236C562.215 2.23446 562.399 2.4112 562.495 2.63388C562.591 2.85655 562.592 3.107 562.498 3.33038L561.404 5.91677C561.333 6.08379 561.212 6.2268 561.058 6.32771C560.903 6.42862 560.72 6.4829 560.533 6.48368C560.347 6.48447 560.164 6.43171 560.008 6.3321C559.852 6.23248 559.73 6.09048 559.658 5.92407L559.226 4.92696L548.349 9.41516C548.235 9.46226 548.112 9.48721 547.988 9.48856C547.864 9.48992 547.741 9.46766 547.626 9.42306C547.51 9.37846 547.405 9.31239 547.317 9.22862C547.228 9.14485 547.157 9.04503 547.108 8.93484C547.06 8.82466 547.034 8.70628 547.032 8.58646C547.031 8.46663 547.054 8.34772 547.1 8.2365C547.146 8.12527 547.215 8.02393 547.302 7.93824C547.388 7.85256 547.492 7.78421 547.606 7.7371L558.497 3.24404L558.073 2.26517C558 2.09842 557.981 1.91457 558.016 1.73702C558.052 1.55947 558.142 1.39623 558.274 1.26807Z" fill="#8457D9"/>
<path fill-rule="evenodd" clip-rule="evenodd" d="M561.741 7.66406C562.075 7.66406 562.395 7.79217 562.631 8.02022C562.867 8.24826 563 8.55755 563 8.88005V17.3919C563 17.5532 562.934 17.7078 562.816 17.8218C562.698 17.9359 562.537 17.9999 562.37 17.9999H559.222C559.055 17.9999 558.895 17.9359 558.777 17.8218C558.659 17.7078 558.593 17.5532 558.593 17.3919V8.88005C558.593 8.55755 558.725 8.24826 558.961 8.02022C559.198 7.79217 559.518 7.66406 559.852 7.66406H561.741ZM555.444 9.48804C555.778 9.48804 556.099 9.61615 556.335 9.84419C556.571 10.0722 556.704 10.3815 556.704 10.704V17.3919C556.704 17.5532 556.637 17.7078 556.519 17.8218C556.401 17.9359 556.241 17.9999 556.074 17.9999H552.926C552.759 17.9999 552.599 17.9359 552.481 17.8218C552.363 17.7078 552.296 17.5532 552.296 17.3919V10.704C552.296 10.3815 552.429 10.0722 552.665 9.84419C552.901 9.61615 553.222 9.48804 553.556 9.48804H555.444ZM550.038 11.6659C549.802 11.4378 549.482 11.3096 549.148 11.3096H547.259C546.925 11.3096 546.605 11.4377 546.369 11.6657C546.133 11.8938 546 12.2031 546 12.5256V17.3895C546 17.5507 546.066 17.7054 546.184 17.8194C546.302 17.9334 546.463 17.9975 546.63 17.9975H549.778C549.945 17.9975 550.105 17.9334 550.223 17.8194C550.341 17.7054 550.407 17.5507 550.407 17.3895V12.5256C550.407 12.2031 550.275 11.8939 550.038 11.6659Z" fill="#E5BBFF"/>
<g clip-path="url(#clip3_27_2033)">
<path d="M617.179 8.03585C617.179 8.54238 617.278 9.04395 617.472 9.51192C617.666 9.97989 617.95 10.4051 618.308 10.7633C618.666 11.1214 619.092 11.4056 619.56 11.5994C620.028 11.7932 620.529 11.893 621.036 11.893C621.542 11.893 622.044 11.7932 622.512 11.5994C622.98 11.4056 623.405 11.1214 623.763 10.7633C624.121 10.4051 624.405 9.97989 624.599 9.51192C624.793 9.04395 624.893 8.54238 624.893 8.03585C624.893 7.52933 624.793 7.02776 624.599 6.55979C624.405 6.09182 624.121 5.66661 623.763 5.30844C623.405 4.95027 622.98 4.66616 622.512 4.47232C622.044 4.27848 621.542 4.17871 621.036 4.17871C620.529 4.17871 620.028 4.27848 619.56 4.47232C619.092 4.66616 618.666 4.95027 618.308 5.30844C617.95 5.66661 617.666 6.09182 617.472 6.55979C617.278 7.02776 617.179 7.52933 617.179 8.03585Z" fill="#91E29E"/>
<path fill-rule="evenodd" clip-rule="evenodd" d="M615.022 2.02243C615.052 1.9926 615.088 1.96896 615.127 1.95285C615.166 1.93675 615.208 1.9285 615.25 1.92857H617.179C617.434 1.92857 617.68 1.82698 617.86 1.64614C618.041 1.4653 618.143 1.22003 618.143 0.964286C618.143 0.708541 618.041 0.463271 617.86 0.282433C617.68 0.101594 617.434 0 617.179 0L615.25 0C614.653 0 614.081 0.237053 613.659 0.65901C613.237 1.08097 613 1.65326 613 2.25V4.17857C613 4.43432 613.102 4.67959 613.282 4.86042C613.463 5.04126 613.709 5.14286 613.964 5.14286C614.22 5.14286 614.465 5.04126 614.646 4.86042C614.827 4.67959 614.929 4.43432 614.929 4.17857V2.25C614.928 2.20776 614.937 2.16592 614.953 2.12687C614.969 2.08783 614.993 2.05233 615.022 2.02243ZM631 13.8214C631 13.5657 630.898 13.3204 630.718 13.1396C630.537 12.9587 630.291 12.8571 630.036 12.8571C629.78 12.8571 629.535 12.9587 629.354 13.1396C629.173 13.3204 629.071 13.5657 629.071 13.8214V15.75C629.071 15.8352 629.038 15.917 628.977 15.9773C628.917 16.0376 628.835 16.0714 628.75 16.0714H626.821C626.566 16.0714 626.32 16.173 626.14 16.3539C625.959 16.5347 625.857 16.78 625.857 17.0357C625.857 17.2915 625.959 17.5367 626.14 17.7176C626.32 17.8984 626.566 18 626.821 18H628.75C629.347 18 629.919 17.7629 630.341 17.341C630.763 16.919 631 16.3467 631 15.75V13.8214ZM613.964 12.8571C614.22 12.8571 614.465 12.9587 614.646 13.1396C614.827 13.3204 614.929 13.5657 614.929 13.8214V15.75C614.929 15.8352 614.962 15.917 615.023 15.9773C615.083 16.0376 615.165 16.0714 615.25 16.0714H617.179C617.434 16.0714 617.68 16.173 617.86 16.3539C618.041 16.5347 618.143 16.78 618.143 17.0357C618.143 17.2915 618.041 17.5367 617.86 17.7176C617.68 17.8984 617.434 18 617.179 18H615.25C614.653 18 614.081 17.7629 613.659 17.341C613.237 16.919 613 16.3467 613 15.75V13.8214C613 13.5657 613.102 13.3204 613.282 13.1396C613.463 12.9587 613.709 12.8571 613.964 12.8571ZM626.821 0C626.566 0 626.32 0.101594 626.14 0.282433C625.959 0.463271 625.857 0.708541 625.857 0.964286C625.857 1.22003 625.959 1.4653 626.14 1.64614C626.32 1.82698 626.566 1.92857 626.821 1.92857H628.75C628.835 1.92857 628.917 1.96244 628.977 2.02272C629.038 2.083 629.071 2.16475 629.071 2.25V4.17857C629.071 4.43432 629.173 4.67959 629.354 4.86042C629.535 5.04126 629.78 5.14286 630.036 5.14286C630.291 5.14286 630.537 5.04126 630.718 4.86042C630.898 4.67959 631 4.43432 631 4.17857V2.25C631 1.65326 630.763 1.08097 630.341 0.65901C629.919 0.237053 629.347 0 628.75 0H626.821Z" fill="#91E29E"/>
<path fill-rule="evenodd" clip-rule="evenodd" d="M618.143 8.0353C618.143 7.26806 618.448 6.53225 618.99 5.98974C619.533 5.44722 620.268 5.14244 621.036 5.14244C621.803 5.14244 622.539 5.44722 623.081 5.98974C623.624 6.53225 623.929 7.26806 623.929 8.0353C623.929 8.80253 623.624 9.53834 623.081 10.0809C622.539 10.6234 621.803 10.9282 621.036 10.9282C620.268 10.9282 619.533 10.6234 618.99 10.0809C618.448 9.53834 618.143 8.80253 618.143 8.0353ZM621.036 3.21387C620.284 3.2141 619.543 3.3901 618.871 3.72783C618.2 4.06555 617.616 4.55563 617.168 5.15894C616.719 5.76225 616.418 6.46206 616.288 7.2025C616.158 7.94293 616.203 8.70347 616.42 9.42337C616.636 10.1433 617.018 10.8026 617.535 11.3487C618.051 11.8948 618.688 12.3125 619.395 12.5685C620.102 12.8245 620.859 12.9117 621.605 12.8231C622.352 12.7345 623.067 12.4726 623.695 12.0583L625.819 14.181C625.907 14.2758 626.013 14.3517 626.132 14.4044C626.25 14.4571 626.378 14.4855 626.507 14.4878C626.637 14.4901 626.765 14.4662 626.885 14.4177C627.005 14.3692 627.114 14.2971 627.206 14.2055C627.297 14.1139 627.37 14.0048 627.418 13.8848C627.467 13.7647 627.49 13.6361 627.488 13.5066C627.486 13.3771 627.458 13.2495 627.405 13.1312C627.352 13.0129 627.276 12.9064 627.181 12.8182L625.06 10.6942C625.54 9.96733 625.815 9.1239 625.854 8.25351C625.894 7.38312 625.697 6.51831 625.284 5.75102C624.871 4.98373 624.258 4.34264 623.51 3.8959C622.762 3.44915 621.907 3.21346 621.036 3.21387Z" fill="#049F7E"/>
</g>
<g clip-path="url(#clip4_27_2033)">
<path d="M682 9.5C682 11.7543 682.896 13.9163 684.49 15.5104C686.084 17.1045 688.246 18 690.5 18C692.754 18 694.916 17.1045 696.51 15.5104C698.104 13.9163 699 11.7543 699 9.5C699 7.24566 698.104 5.08365 696.51 3.48959C694.916 1.89553 692.754 1 690.5 1C688.246 1 686.084 1.89553 684.49 3.48959C682.896 5.08365 682 7.24566 682 9.5Z" fill="#85E7FF"/>
<path d="M687.464 7.07185C687.464 7.87697 687.784 8.64911 688.353 9.21842C688.923 9.78773 689.695 10.1076 690.5 10.1076C691.305 10.1076 692.077 9.78773 692.647 9.21842C693.216 8.64911 693.536 7.87697 693.536 7.07185C693.536 6.26673 693.216 5.49458 692.647 4.92527C692.077 4.35597 691.305 4.03613 690.5 4.03613C689.695 4.03613 688.923 4.35597 688.353 4.92527C687.784 5.49458 687.464 6.26673 687.464 7.07185Z" fill="#0078FF"/>
<path d="M695.652 13.7499C695.026 12.9896 694.239 12.3774 693.349 11.9575C692.458 11.5376 691.485 11.3203 690.5 11.3213C689.515 11.3203 688.542 11.5376 687.651 11.9575C686.761 12.3774 685.974 12.9896 685.348 13.7499C685.974 14.5102 686.761 15.1223 687.651 15.5422C688.542 15.9622 689.515 16.1794 690.5 16.1784C691.485 16.1794 692.458 15.9622 693.349 15.5422C694.239 15.1223 695.026 14.5102 695.652 13.7499Z" fill="#0078FF"/>
</g>
<g clip-path="url(#clip5_27_2033)">
<path fill-rule="evenodd" clip-rule="evenodd" d="M586.44 13.0884C586.48 12.9775 586.552 12.8816 586.649 12.8137C586.745 12.7458 586.859 12.7092 586.977 12.709H589.023C589.141 12.7092 589.255 12.7458 589.351 12.8137C589.448 12.8816 589.52 12.9775 589.56 13.0884L590.345 15.2804H591.429C591.656 15.2804 591.874 15.3707 592.035 15.5315C592.195 15.6922 592.286 15.9102 592.286 16.1376C592.286 16.3649 592.195 16.5829 592.035 16.7436C591.874 16.9044 591.656 16.9947 591.429 16.9947H584.571C584.344 16.9947 584.126 16.9044 583.965 16.7436C583.805 16.5829 583.714 16.3649 583.714 16.1376C583.714 15.9102 583.805 15.6922 583.965 15.5315C584.126 15.3707 584.344 15.2804 584.571 15.2804H585.655L586.439 13.0884H586.44Z" fill="#8457D9"/>
<path d="M586.205 6.312C586.205 6.6151 586.325 6.90579 586.539 7.12012C586.754 7.33445 587.044 7.45486 587.347 7.45486H589.878V8.83543C589.878 8.93879 589.906 9.0402 589.959 9.12886C590.012 9.21753 590.088 9.29012 590.179 9.3389C590.271 9.38769 590.373 9.41085 590.476 9.40591C590.58 9.40097 590.68 9.36812 590.766 9.31086L593.551 7.45486H594.857C595.16 7.45486 595.451 7.33445 595.665 7.12012C595.88 6.90579 596 6.6151 596 6.312V2.14286C596 1.83975 595.88 1.54906 595.665 1.33474C595.451 1.12041 595.16 1 594.857 1H587.347C587.044 1 586.754 1.12041 586.539 1.33474C586.325 1.54906 586.205 1.83975 586.205 2.14286V6.312Z" fill="#8457D9"/>
<path fill-rule="evenodd" clip-rule="evenodd" d="M587.347 8.88329H588.449C588.483 10.4513 590.243 11.377 591.558 10.4993L593.984 8.88329H594.857C595.269 8.88329 595.656 8.78615 596 8.61586V11.9073C596 12.8261 595.255 13.5713 594.335 13.5713H581.665C581.446 13.5713 581.23 13.5282 581.028 13.4445C580.826 13.3609 580.642 13.2382 580.488 13.0836C580.333 12.929 580.21 12.7454 580.127 12.5434C580.043 12.3413 580 12.1248 580 11.9061V3.23643C580 2.31643 580.745 1.57129 581.665 1.57129H584.839C584.797 1.75886 584.776 1.95051 584.776 2.14272V6.31186C584.776 6.99385 585.047 7.6479 585.529 8.13014C586.011 8.61237 586.665 8.88329 587.347 8.88329Z" fill="#E5BBFF"/>
</g>
<g clip-path="url(#clip6_27_2033)">
<path fill-rule="evenodd" clip-rule="evenodd" d="M648.607 1.15137C648.446 1.15137 648.292 1.21533 648.178 1.3292C648.064 1.44306 648 1.59749 648 1.75851V13.9014C648 14.0624 648.064 14.2168 648.178 14.3307C648.292 14.4445 648.446 14.5085 648.607 14.5085H654.382C654.176 13.9235 654.071 13.3075 654.071 12.6871C654.071 11.1437 654.711 9.74851 655.741 8.75522V2.73237C655.568 2.26828 655.257 1.86823 654.85 1.58586C654.443 1.30349 653.96 1.1523 653.464 1.15258H648.607V1.15137ZM657.259 2.73358V7.71822C658.044 7.35824 658.903 7.18948 659.766 7.2258C660.629 7.26212 661.471 7.50247 662.223 7.92715C662.975 8.35182 663.616 8.94873 664.093 9.66891C664.57 10.3891 664.869 11.212 664.966 12.0702H665V1.75851C665 1.59749 664.936 1.44306 664.822 1.3292C664.708 1.21533 664.554 1.15137 664.393 1.15137H659.536C659.04 1.15127 658.556 1.30281 658.149 1.58564C657.742 1.86847 657.432 2.26904 657.259 2.73358Z" fill="#FFDCBB"/>
<path fill-rule="evenodd" clip-rule="evenodd" d="M657.411 12.6867C657.411 12.1231 657.635 11.5826 658.033 11.1841C658.432 10.7855 658.972 10.5617 659.536 10.5617C660.099 10.5617 660.64 10.7855 661.038 11.1841C661.437 11.5826 661.661 12.1231 661.661 12.6867C661.661 13.2502 661.437 13.7908 661.038 14.1893C660.64 14.5878 660.099 14.8117 659.536 14.8117C658.972 14.8117 658.432 14.5878 658.033 14.1893C657.635 13.7908 657.411 13.2502 657.411 12.6867ZM659.536 8.74023C658.926 8.74047 658.324 8.88212 657.778 9.15406C657.232 9.42601 656.756 9.82084 656.389 10.3076C656.021 10.7943 655.771 11.3596 655.658 11.9592C655.546 12.5588 655.574 13.1763 655.74 13.7632C655.907 14.3501 656.207 14.8904 656.617 15.3417C657.028 15.7931 657.537 16.1431 658.106 16.3644C658.674 16.5856 659.286 16.6721 659.894 16.6169C660.501 16.5618 661.088 16.3666 661.607 16.0466L663.141 17.5802C663.314 17.7411 663.542 17.8287 663.778 17.8245C664.014 17.8204 664.239 17.7248 664.406 17.5579C664.573 17.3911 664.668 17.1659 664.672 16.93C664.677 16.6941 664.589 16.4657 664.428 16.2931L662.896 14.7582C663.264 14.1603 663.467 13.4747 663.482 12.7723C663.497 12.07 663.325 11.3763 662.982 10.7629C662.64 10.1494 662.14 9.63858 661.534 9.28301C660.928 8.92745 660.238 8.74007 659.536 8.74023Z" fill="#DF6162"/>
</g>
</g>
</g>
<defs>
<filter id="filter0_d_27_2033" x="-97" y="-1839" width="1896" height="2188" filterUnits="userSpaceOnUse" color-interpolation-filters="sRGB">
<feFlood flood-opacity="0" result="BackgroundImageFix"/>
<feColorMatrix in="SourceAlpha" type="matrix" values="0 0 0 0 0 0 0 0 0 0 0 0 0 0 0 0 0 0 127 0" result="hardAlpha"/>
<feOffset dy="4"/>
<feGaussianBlur stdDeviation="2"/>
<feComposite in2="hardAlpha" operator="out"/>
<feColorMatrix type="matrix" values="0 0 0 0 0 0 0 0 0 0 0 0 0 0 0 0 0 0 0.25 0"/>
<feBlend mode="normal" in2="BackgroundImageFix" result="effect1_dropShadow_27_2033"/>
<feBlend mode="normal" in="SourceGraphic" in2="effect1_dropShadow_27_2033" result="shape"/>
</filter>
<clipPath id="clip0_27_2033">
<rect width="708" height="18" fill="white"/>
</clipPath>
<clipPath id="clip1_27_2033">
<rect width="14" height="14" fill="white" transform="translate(107 2)"/>
</clipPath>
<clipPath id="clip2_27_2033">
<rect width="17" height="17" fill="white" transform="translate(444)"/>
</clipPath>
<clipPath id="clip3_27_2033">
<rect width="18" height="18" fill="white" transform="translate(613)"/>
</clipPath>
<clipPath id="clip4_27_2033">
<rect width="17" height="17" fill="white" transform="translate(682 1)"/>
</clipPath>
<clipPath id="clip5_27_2033">
<rect width="16" height="16" fill="white" transform="translate(580 1)"/>
</clipPath>
<clipPath id="clip6_27_2033">
<rect width="17" height="17" fill="white" transform="translate(648 1)"/>
</clipPath>
</defs>
</svg>
